# xmcd CD database file
#
# Track frame offsets:
#	182
#	20395
#	40325
#	59147
#
# Disc length: 1049 seconds
#
# Revision: 0
# Processed by: cddbd v1.5.2PL0 Copyright (c) Steve Scherf et al.
# Submitted via: CDex 1.70beta2
#
DISCID=32041704
DTITLE=Tullio De Piscopo - QUI GATTA CI COVA
DYEAR=1989
DGENRE=Jazz
TTITLE0=QUI GATTA CI COVA
TTITLE1=STOP BAJON
TTITLE2=ANDAMENTO LENTO
TTITLE3=JASTAO'
EXTD=YEAR: 1989
EXTT0=
EXTT1=
EXTT2=
EXTT3=
PLAYORDER=
